<svg width="335" height="161" viewBox="0 0 335 161" fill="none" xmlns="http://www.w3.org/2000/svg">
<path d="M0 100V31.4285H27.4554C32.5 31.4285 36.7076 32.1763 40.0781 33.6718C43.4487 35.1674 45.9821 37.2433 47.6786 39.8995C49.375 42.5334 50.2232 45.5692 50.2232 49.0067C50.2232 51.6852 49.6875 54.0401 48.6161 56.0714C47.5446 58.0803 46.0714 59.7321 44.1964 61.0267C42.3438 62.2991 40.2232 63.2031 37.8348 63.7388V64.4084C40.4464 64.52 42.8906 65.2566 45.1674 66.6183C47.4665 67.9799 49.3304 69.8883 50.7589 72.3437C52.1875 74.7767 52.9018 77.6785 52.9018 81.0491C52.9018 84.6875 51.9978 87.9352 50.1897 90.7924C48.404 93.6272 45.7589 95.8705 42.2545 97.5223C38.75 99.1741 34.4308 100 29.2969 100H0ZM14.4978 88.1473H26.317C30.3571 88.1473 33.3036 87.3772 35.1563 85.837C37.0089 84.2745 37.9353 82.1986 37.9353 79.6093C37.9353 77.712 37.4777 76.0379 36.5625 74.587C35.6473 73.1361 34.3415 71.9977 32.6451 71.1718C30.971 70.3459 28.9732 69.933 26.6518 69.933H14.4978V88.1473ZM14.4978 60.1227H25.2455C27.2321 60.1227 28.9955 59.7767 30.5357 59.0848C32.0982 58.3705 33.3259 57.366 34.2188 56.0714C35.1339 54.7767 35.5915 53.2254 35.5915 51.4174C35.5915 48.9397 34.7098 46.9419 32.9464 45.4241C31.2054 43.9062 28.7277 43.1473 25.5134 43.1473H14.4978V60.1227Z" fill="#FF3B3B"/>
<path d="M85.505 101.004C80.2148 101.004 75.6613 99.933 71.8443 97.7901C68.0497 95.625 65.1256 92.5669 63.072 88.616C61.0184 84.6428 59.9916 79.9442 59.9916 74.52C59.9916 69.2299 61.0184 64.587 63.072 60.5915C65.1256 56.5959 68.0162 53.4821 71.7439 51.2499C75.4939 49.0178 79.8912 47.9017 84.9358 47.9017C88.3287 47.9017 91.4872 48.4486 94.4113 49.5424C97.3577 50.6138 99.9247 52.2321 102.112 54.3973C104.322 56.5625 106.041 59.2857 107.268 62.5669C108.496 65.8258 109.11 69.6428 109.11 74.0178V77.9352H65.6836V69.0959H95.6836C95.6836 67.0424 95.2372 65.2232 94.3443 63.6383C93.4515 62.0535 92.2126 60.8147 90.6278 59.9218C89.0653 59.0067 87.2461 58.5491 85.1702 58.5491C83.005 58.5491 81.0854 59.0513 79.4113 60.0558C77.7595 61.0379 76.4649 62.366 75.5274 64.0401C74.5899 65.6919 74.1099 67.5334 74.0876 69.5647V77.9687C74.0876 80.5133 74.5564 82.712 75.4939 84.5647C76.4537 86.4174 77.8041 87.8459 79.5452 88.8504C81.2863 89.8549 83.351 90.3571 85.7394 90.3571C87.3242 90.3571 88.7751 90.1339 90.0921 89.6875C91.409 89.241 92.5363 88.5714 93.4738 87.6785V87.6785C95.1743 86.0589 97.2172 84.5029 99.5605 84.6575L108.809 85.2678C108.139 88.4374 106.766 91.2053 104.69 93.5714C102.637 95.9151 99.9805 97.7455 96.7215 99.0625C93.4849 100.357 89.7461 101.004 85.505 101.004Z" fill="#FF3B3B"/>
<path d="M141.588 120.357C136.967 120.357 133.005 119.721 129.701 118.449C126.42 117.199 123.809 115.491 121.867 113.326C119.925 111.161 118.664 108.728 118.083 106.027L127.828 104.716C129.851 104.444 131.759 105.67 133.184 107.132V107.132C134.054 108.025 135.204 108.739 136.632 109.275C138.083 109.833 139.847 110.112 141.922 110.112C145.025 110.112 147.581 109.353 149.59 107.835C151.621 106.339 152.637 103.828 152.637 100.301V90.8928H152.034C151.409 92.3214 150.472 93.6718 149.222 94.9442C147.972 96.2165 146.364 97.2544 144.4 98.058C142.436 98.8616 140.092 99.2633 137.369 99.2633C133.507 99.2633 129.992 98.3705 126.822 96.5848C123.675 94.7767 121.164 92.02 119.289 88.3147C117.436 84.587 116.509 79.8772 116.509 74.1852C116.509 68.3593 117.458 63.4933 119.355 59.587C121.253 55.6808 123.775 52.7566 126.922 50.8147C130.092 48.8727 133.563 47.9017 137.335 47.9017C140.215 47.9017 142.626 48.3928 144.568 49.375C146.509 50.3348 148.072 51.5401 149.255 52.991C150.46 54.4196 151.387 55.8258 152.034 57.2098H152.57V57.2098C152.57 52.4389 156.437 48.5714 161.208 48.5714H166.733V100.502C166.733 104.877 165.661 108.538 163.518 111.484C161.376 114.431 158.407 116.641 154.612 118.114C150.84 119.609 146.498 120.357 141.588 120.357ZM141.889 88.5491C144.188 88.5491 146.13 87.9799 147.715 86.8415C149.322 85.6808 150.55 84.029 151.398 81.8861C152.268 79.7209 152.704 77.1316 152.704 74.1183C152.704 71.1049 152.28 68.4933 151.431 66.2834C150.583 64.0513 149.355 62.3214 147.748 61.0937C146.141 59.866 144.188 59.2522 141.889 59.2522C139.545 59.2522 137.57 59.8883 135.963 61.1607C134.355 62.4107 133.139 64.1517 132.313 66.3839C131.487 68.616 131.074 71.1941 131.074 74.1183C131.074 77.087 131.487 79.654 132.313 81.8192C133.161 83.962 134.378 85.625 135.963 86.808C137.57 87.9687 139.545 88.5491 141.889 88.5491Z" fill="#FF3B3B"/>
<path d="M189.083 100C183.008 100 178.083 95.0751 178.083 89V48.5714H192.347V100H189.083ZM185.248 41.9419C183.128 41.9419 181.309 41.2388 179.791 39.8325C178.295 38.404 177.547 36.6964 177.547 34.7098C177.547 32.7455 178.295 31.0602 179.791 29.654C181.309 28.2254 183.128 27.5111 185.248 27.5111C187.369 27.5111 189.177 28.2254 190.672 29.654C192.19 31.0602 192.949 32.7455 192.949 34.7098C192.949 36.6964 192.19 38.404 190.672 39.8325C189.177 41.2388 187.369 41.9419 185.248 41.9419Z" fill="#FF3B3B"/>
<path d="M203.504 100V91.4955L228.683 60.3236V59.9553H215.759C209.472 59.9553 204.375 54.8586 204.375 48.5714V48.5714H245.859V57.8459L222.221 88.2477V88.616H235.346C241.633 88.616 246.73 93.7128 246.73 100V100H203.504Z" fill="#FF3B3B"/>
<path d="M279.601 101.004C274.311 101.004 269.757 99.933 265.94 97.7901C262.146 95.625 259.222 92.5669 257.168 88.616C255.114 84.6428 254.088 79.9442 254.088 74.52C254.088 69.2299 255.114 64.587 257.168 60.5915C259.222 56.5959 262.112 53.4821 265.84 51.2499C269.59 49.0178 273.987 47.9017 279.032 47.9017C282.425 47.9017 285.583 48.4486 288.507 49.5424C291.454 50.6138 294.021 52.2321 296.208 54.3973C298.418 56.5625 300.137 59.2857 301.364 62.5669C302.592 65.8258 303.206 69.6428 303.206 74.0178V77.9352H259.78V69.0959H289.78C289.78 67.0424 289.333 65.2232 288.44 63.6383C287.547 62.0535 286.309 60.8147 284.724 59.9218C283.161 59.0067 281.342 58.5491 279.266 58.5491C277.101 58.5491 275.181 59.0513 273.507 60.0558C271.855 61.0379 270.561 62.366 269.623 64.0401C268.686 65.6919 268.206 67.5334 268.184 69.5647V77.9687C268.184 80.5133 268.652 82.712 269.59 84.5647C270.55 86.4174 271.9 87.8459 273.641 88.8504C275.382 89.8549 277.447 90.3571 279.835 90.3571C281.42 90.3571 282.871 90.1339 284.188 89.6875C285.505 89.241 286.632 88.5714 287.57 87.6785V87.6785C289.27 86.0589 291.313 84.5029 293.656 84.6575L302.905 85.2678C302.235 88.4374 300.862 91.2053 298.786 93.5714C296.733 95.9151 294.076 97.7455 290.818 99.0625C287.581 100.357 283.842 101.004 279.601 101.004Z" fill="#FF3B3B"/>
<path fill-rule="evenodd" clip-rule="evenodd" d="M321.045 80.5C321.045 96.9174 310.869 113.476 290.9 126.545C271.046 139.539 242.85 148 211.045 148C182.155 148 156.243 141.019 136.855 130H114.04C136.551 148.869 171.633 161 211.045 161C278.976 161 334.045 124.959 334.045 80.5C334.045 36.0411 278.976 0 211.045 0C175.235 0 142.999 10.0155 120.52 26H146.722C164.672 17.9127 186.811 13 211.045 13C242.85 13 271.046 21.4613 290.9 34.4554C310.869 47.5241 321.045 64.0826 321.045 80.5Z" fill="#000637"/>
</svg>
