<svg width="284" height="70" viewBox="0 0 284 70" fill="none" xmlns="http://www.w3.org/2000/svg">
<path d="M17.5409 41.4859L15.5206 35.2415L8.72519 37.629L4.86833 25.6912L4.68467 25.3238C4.31735 24.7729 2.84807 23.8546 1.19513 24.7729C-0.127222 25.5075 -0.0904904 27.2829 0.0931694 28.0787L5.23564 45.1591L9.82714 59.6682C11.2964 62.4598 13.7452 64.2597 14.786 64.8107C16.8429 66.28 22.3772 66.0351 24.8872 65.729L23.0506 59.4846C22.1691 59.7784 19.9896 59.7294 19.0101 59.6682C16.0716 59.2274 14.4799 56.546 14.0513 55.2604L10.7454 43.6898L17.5409 41.4859Z" fill="#FF3B3B"/>
<path d="M15.1533 33.7722L9.82714 35.4251C8.29665 30.5275 5.16219 20.5119 4.86833 19.6304C4.57447 18.7488 4.62345 17.5489 4.68467 17.0591C4.86833 16.5694 5.52951 15.5164 6.70493 15.2226C7.88035 14.9287 9.15373 15.7123 9.64349 16.1409L10.0108 17.0591L15.1533 33.7722Z" fill="#FF3B3B"/>
<path d="M16.9899 56.9133C17.8714 58.3826 21.0304 58.1377 22.4997 57.8316L18.0918 43.1388L12.582 44.6081L15.3369 53.2401C15.9247 55.1502 16.6838 56.4848 16.9899 56.9133Z" fill="#FF3B3B"/>
<path d="M34.2539 54.3421C32.05 56.9868 26.8463 58.3826 24.5199 58.7499L26.3565 64.9944L30.397 63.7087C34.511 62.8272 38.6005 58.0765 40.131 55.8114L49.1303 41.4859C49.865 39.4289 48.7018 38.3025 48.0284 37.9964C46.1183 36.9679 45.0286 37.9351 44.7225 38.5473L42.5186 41.8532L34.2539 54.3421Z" fill="#FF3B3B"/>
<path d="M23.969 31.3846C26.3198 30.9438 28.989 31.5683 30.0297 31.9356L29.2951 30.099L26.5402 21.0997C25.928 19.0794 24.6301 14.7818 24.3363 13.7533C24.0424 12.7248 23.3568 11.8554 23.0507 11.5494C22.0222 10.227 20.2958 10.9984 19.5611 11.5494C18.5326 11.9901 18.6428 13.9369 18.8265 14.8552L20.1121 18.8957L23.969 31.3846Z" fill="#FF3B3B"/>
<path fill-rule="evenodd" clip-rule="evenodd" d="M10.7455 13.7532C10.4394 12.7737 10.1578 10.5576 11.4801 9.52907C12.8025 8.50057 14.1126 9.10053 14.6024 9.52907C14.786 9.65151 15.2635 10.08 15.7043 10.8147L16.439 12.6513L20.2958 25.8748L22.6834 33.2212C25.1322 32.609 30.7644 32.56 33.703 37.2617C34.8049 38.6698 36.7885 42.6613 35.9069 47.363C35.0253 52.0647 31.2542 54.8318 29.4788 55.6277L24.3363 57.2806L24.138 56.8661L10.7455 13.7532ZM24.7327 38.7745L27.4249 48.8174C28.4246 48.3703 30.3822 46.7389 30.2152 43.7904C30.0172 40.2958 27.8909 39.3624 26.9024 38.9285C26.8484 38.9048 26.7978 38.8826 26.751 38.8615C26.0297 38.5363 25.1049 38.668 24.7327 38.7745Z" fill="#FF3B3B"/>
<path d="M76.2129 68.9612V54.3801L80.5718 48.5168L92.7227 68.9612H111.74L92.5684 38.0247L110.891 13.2986H93.7256L76.5215 36.906H76.2129V13.2986H59.8574V68.9612H76.2129ZM131.065 68.9612V39.6448H131.374L153.014 68.9612H165.551V13.2986H150.121V42.1521H149.812L128.327 13.2986H115.636V68.9612H131.065ZM199.535 69.9255C214.54 69.9255 225.379 60.3977 225.457 46.511H209.795C209.294 52.9529 205.205 57.0803 199.573 57.0803C192.784 57.0803 188.58 51.1399 188.58 41.072C188.58 31.1199 192.823 25.1794 199.535 25.1794C205.205 25.1794 209.333 29.384 209.718 35.7102H225.379C225.341 21.9006 214.231 12.3342 199.535 12.3342C182.523 12.3342 171.916 22.7493 171.916 41.1106C171.916 59.4719 182.485 69.9255 199.535 69.9255ZM265.535 68.9612L282.431 13.2986H264.378L255.467 53.4543H255.159L246.248 13.2986H227.424L244.319 68.9612H265.535Z" fill="#191A22"/>
<path d="M63.677 7.03789C63.677 7.17596 63.7889 7.28789 63.927 7.28789C64.0651 7.28789 64.177 7.17596 64.177 7.03789H63.677ZM64.177 2.38013C64.177 2.24206 64.0651 2.13013 63.927 2.13013C63.7889 2.13013 63.677 2.24206 63.677 2.38013H64.177ZM64.177 7.03789V2.38013H63.677V7.03789H64.177Z" fill="#191A22"/>
<path d="M62.6922 3.04756C62.775 3.15802 62.9317 3.1804 63.0422 3.09756C63.1526 3.01472 63.175 2.85802 63.0922 2.74756L62.6922 3.04756ZM60.3045 3.41509L60.0704 3.50287L60.0704 3.50287L60.3045 3.41509ZM61.5121 6.86528L61.2731 6.93883L61.2749 6.94434L61.5121 6.86528ZM61.4474 7.46187C61.4911 7.59286 61.6327 7.66365 61.7636 7.61999C61.8946 7.57632 61.9654 7.43474 61.9218 7.30376L61.4474 7.46187ZM63.0922 2.74756C62.8809 2.46586 62.2594 1.95752 61.3396 1.95752V2.45752C62.0758 2.45752 62.5584 2.86923 62.6922 3.04756L63.0922 2.74756ZM61.3396 1.95752C60.8359 1.95752 60.4653 2.20386 60.2488 2.51519C60.0419 2.81266 59.957 3.20051 60.0704 3.50287L60.5386 3.32731C60.4986 3.22069 60.5173 3.00476 60.6592 2.8007C60.7916 2.61048 61.0151 2.45752 61.3396 2.45752V1.95752ZM60.0704 3.50287C60.2444 3.96668 60.7239 5.1538 61.2731 6.93881L61.751 6.79176C61.1962 4.98857 60.7097 3.78355 60.5386 3.32731L60.0704 3.50287ZM61.2749 6.94434L61.4474 7.46187L61.9218 7.30376L61.7492 6.78623L61.2749 6.94434Z" fill="#191A22"/>
<path d="M65.3404 2.86717C65.2619 2.98077 65.1062 3.00924 64.9926 2.93077C64.879 2.85229 64.8505 2.69658 64.929 2.58298L65.3404 2.86717ZM67.518 3.2426L67.7543 3.32422L67.7543 3.32422L67.518 3.2426ZM66.4058 6.6928L66.6464 6.76098L66.6448 6.76617L66.4058 6.6928ZM66.4859 7.2837C66.4454 7.41569 66.3055 7.48984 66.1735 7.44932C66.0415 7.4088 65.9674 7.26895 66.0079 7.13695L66.4859 7.2837ZM64.929 2.58298C65.1228 2.3024 65.7012 1.78503 66.5647 1.78503V2.28503C65.9028 2.28503 65.4643 2.68772 65.3404 2.86717L64.929 2.58298ZM66.5647 1.78503C67.045 1.78503 67.3922 2.0405 67.5908 2.35059C67.7812 2.64777 67.8562 3.02938 67.7543 3.32422L67.2817 3.16099C67.3212 3.04686 67.3008 2.82468 67.1698 2.62032C67.0472 2.42887 66.8471 2.28503 66.5647 2.28503V1.78503ZM67.7543 3.32422C67.5942 3.78781 67.1523 4.97543 66.6463 6.76097L66.1653 6.62463C66.6762 4.82196 67.1241 3.61745 67.2817 3.16099L67.7543 3.32422ZM66.6448 6.76617L66.4859 7.2837L66.0079 7.13695L66.1668 6.61943L66.6448 6.76617Z" fill="#191A22"/>
<path d="M59.252 3.75031C59.3419 3.85514 59.4997 3.86728 59.6046 3.77742C59.7094 3.68757 59.7215 3.52974 59.6317 3.42491L59.252 3.75031ZM57.1992 3.58761L57.3554 3.78283L57.3662 3.77418L57.376 3.76438L57.1992 3.58761ZM58.2343 6.34777L58.4463 6.21527L58.4341 6.19578L58.4186 6.17883L58.2343 6.34777ZM58.8848 7.86034C58.958 7.97743 59.1122 8.01302 59.2293 7.93985C59.3464 7.86667 59.382 7.71243 59.3088 7.59535L58.8848 7.86034ZM59.6317 3.42491C59.4312 3.19103 59.0638 2.9111 58.5971 2.82824C58.113 2.7423 57.5581 2.8752 57.0224 3.41083L57.376 3.76438C57.8064 3.33396 58.2003 3.2656 58.5097 3.32054C58.8366 3.37857 59.1075 3.58166 59.252 3.75031L59.6317 3.42491ZM57.0431 3.39239C56.7987 3.58788 56.678 3.97799 56.7961 4.48918C56.9145 5.00203 57.2759 5.67228 58.05 6.5167L58.4186 6.17883C57.6745 5.36716 57.3746 4.77233 57.2832 4.37664C57.1914 3.97927 57.3122 3.81735 57.3554 3.78283L57.0431 3.39239ZM58.0223 6.48026L58.8848 7.86034L59.3088 7.59535L58.4463 6.21527L58.0223 6.48026Z" fill="#191A22"/>
<path d="M68.7722 3.74749C68.6808 3.85097 68.5228 3.86075 68.4193 3.76934C68.3159 3.67793 68.3061 3.51994 68.3975 3.41646L68.7722 3.74749ZM70.803 3.58198L70.6497 3.77946L70.6388 3.771L70.6289 3.7614L70.803 3.58198ZM69.7792 6.23088L69.569 6.0955L69.5816 6.07603L69.5975 6.05919L69.7792 6.23088ZM69.1363 7.6907C69.0615 7.80678 68.9068 7.84027 68.7907 7.7655C68.6747 7.69073 68.6412 7.53602 68.7159 7.41995L69.1363 7.6907ZM68.3975 3.41646C68.5969 3.19073 68.9606 2.9224 69.4211 2.84308C69.8977 2.76097 70.4461 2.88733 70.977 3.40256L70.6289 3.7614C70.2044 3.3495 69.8143 3.28272 69.506 3.33582C69.1816 3.39169 68.9141 3.58692 68.7722 3.74749L68.3975 3.41646ZM70.9563 3.38449C71.2011 3.57455 71.322 3.95523 71.204 4.4511C71.0859 4.94696 70.7267 5.59198 69.9609 6.40256L69.5975 6.05919C70.3332 5.28043 70.628 4.71137 70.7176 4.3353C70.8071 3.95924 70.6892 3.81015 70.6497 3.77946L70.9563 3.38449ZM69.9894 6.36625L69.1363 7.6907L68.7159 7.41995L69.569 6.0955L69.9894 6.36625Z" fill="#191A22"/>
<path d="M63.677 1.17251C63.677 1.31058 63.7889 1.42251 63.927 1.42251C64.0651 1.42251 64.177 1.31058 64.177 1.17251H63.677ZM64.177 1C64.177 0.861929 64.0651 0.75 63.927 0.75C63.7889 0.75 63.677 0.861929 63.677 1H64.177ZM64.177 1.17251V1H63.677V1.17251H64.177Z" fill="#191A22"/>
</svg>
